<?xml version="1.0" encoding="UTF-8" standalone="no"?>
<!DOCTYPE svg PUBLIC "-//W3C//DTD SVG 1.1//EN" "http://www.w3.org/Graphics/SVG/1.1/DTD/svg11.dtd">
<!-- Created with Vectornator (http://vectornator.io/) -->
<svg height="100%" stroke-miterlimit="10" style="fill-rule:nonzero;clip-rule:evenodd;stroke-linecap:round;stroke-linejoin:round;" version="1.1" viewBox="0 0 1024 1024" width="100%" xml:space="preserve" xmlns="http://www.w3.org/2000/svg" xmlns:vectornator="http://vectornator.io" xmlns:xlink="http://www.w3.org/1999/xlink">
<defs>
<radialGradient cx="0" cy="0" gradientTransform="matrix(512 0 0 512.335 512 512)" gradientUnits="userSpaceOnUse" id="RadialGradient" r="1">
<stop offset="0" stop-color="#b8b8b8"/>
<stop offset="1" stop-color="#141414"/>
</radialGradient>
</defs>
<clipPath id="ArtboardFrame">
<rect height="1024" width="1024" x="0" y="0"/>
</clipPath>
<g clip-path="url(#ArtboardFrame)" id="Layer-1" vectornator:layerName="Layer 1">
<path d="M-1.13687e-13 5.68434e-14L1024 5.68434e-14L1024 1024L-1.13687e-13 1024L-1.13687e-13 5.68434e-14Z" fill="url(#RadialGradient)" fill-rule="nonzero" opacity="1" stroke="#00ff8b" stroke-linecap="butt" stroke-linejoin="round" stroke-opacity="0" stroke-width="10" vectornator:layerName="Rectangle 1"/>
<g opacity="1" vectornator:layerName="Group 1">
<path d="M466.121 647.489C439.243 647.711 420.023 655.759 394.885 641.816C384.07 635.82 375.868 629.665 375.939 616.376C375.968 610.538 375.227 608.028 376.942 602.544C422.764 621.696 466.405 620.921 510.435 593.515C519.971 587.581 533.772 580.248 539.775 570.386C547.668 557.41 529.631 545.977 537.47 530.942C547.852 511.019 563.374 495.069 572.211 473.883C594.572 420.279 582.74 366.325 546.405 322.682C534.44 308.311 520.328 296.746 504.76 286.579C478.369 269.347 450.464 265.625 419.62 265.625C399.551 265.625 379.409 265.929 360.025 271.958C278.891 297.194 212.971 382.978 207.033 468.179C198.03 597.282 264.971 729.79 385.566 783.592C421.633 799.683 460.107 809.679 499.082 815.013C507.306 816.139 539.953 820.831 544.969 811.719C550.782 801.154 519.406 778.382 513.714 770.58C487.08 734.074 469.673 692.765 466.121 647.489Z" fill="#f5d865" fill-rule="nonzero" opacity="1" stroke="none" vectornator:layerName="path"/>
<path d="M616.429 421.855C606.509 436.029 605.043 467.737 598.954 485.677C592.686 504.137 581.817 522.152 578.485 541.424C613.87 541.424 658.679 550.5 700.641 547.472C726.837 545.582 752.227 536.52 772.588 525.138C788.015 516.512 817.43 479.509 800.675 457.749C796.961 452.926 788.794 451.467 783.503 452.256C769.737 454.316 753.13 461.088 739.015 461.374C694.276 462.28 658.017 440.412 616.429 421.855Z" fill="#f5d865" fill-rule="nonzero" opacity="1" stroke="none" vectornator:layerName="path 1"/>
<path d="M394.885 399.99C394.885 373.891 415.474 352.735 440.872 352.735C466.27 352.735 486.858 373.891 486.858 399.99C486.858 426.088 466.27 447.245 440.872 447.245C415.474 447.245 394.885 426.088 394.885 399.99Z" fill="#1a1f1f" fill-rule="nonzero" opacity="1" stroke="none" vectornator:layerName="Oval 1"/>
<path d="M648.909 457.813C647.072 457.677 645.232 457.735 643.585 458.25C612.198 468.015 658.136 512.807 671.564 479.356C673.611 474.252 673.108 468.237 673.171 462.853C666.868 461.516 660.592 459.628 654.235 458.597C652.582 458.33 650.748 457.952 648.909 457.813Z" fill="#1a1f1f" fill-rule="nonzero" opacity="1" stroke="none" vectornator:layerName="path"/>
<path d="M332.33 176.543C322.135 176.669 306.767 176.707 305.956 190.529C304.592 213.791 331.627 229.571 343.15 246.036C308.171 249.194 277.574 277.207 253.883 301.63C171.74 386.311 155.907 524.629 202.148 632.415C217.878 669.079 236.6 707.75 262.504 738.043C316.651 801.359 407.458 842.591 489.225 846.277C536.677 848.414 565.192 848.6 610.954 838.894C581.59 801.476 550.652 763.533 526.082 721.365C514.742 701.907 500.44 659.517 515.177 638.408C524.231 625.443 541.893 617.429 554.147 608.006C564.605 599.964 573.594 587.167 586.608 583.509C614.138 575.77 650.556 582.928 678.581 584.898C710.806 587.167 746.262 582.171 775.964 568.743C817.3 550.06 862.618 495.256 842.576 446.174C840.207 440.373 837.069 434.591 833.363 429.582C810.424 398.55 771.933 423.478 740.798 420.896C714.721 418.73 686.566 406.33 662.35 396.66C647.697 390.808 630.95 384.523 619.323 373.293C609.212 363.528 604.104 349.663 596.836 337.766C585.777 319.672 572.068 302.463 556.852 287.905C540.505 272.263 520.447 257.831 500.045 248.381C486.014 241.882 470.235 238.516 456.764 230.921C440.003 221.472 427.671 205.436 410.777 195.654C387.208 182.008 359.165 176.214 332.33 176.543ZM413.821 272.443C420.849 272.314 427.955 272.575 435.123 273.312C453.19 275.168 469.889 276.988 486.52 285.299C553.69 318.865 592.018 394.166 568.349 468.412C560.171 494.058 540.294 511.364 530.307 535.125C524.678 548.518 541.674 558.369 535.466 569.957C529.926 580.298 515.007 589.035 505.455 594.975C466.37 619.294 415.222 622.725 375.611 599.058C362.99 653.563 428.596 656.014 464.879 649.093C471.615 672.509 470.598 695.392 480.772 718.585C495.961 753.212 522.798 779.464 543.327 810.316C490.548 810.316 440.707 804.273 391.842 781.649C280.804 730.249 204.956 605.657 213.561 479.531C220.959 371.022 308.417 274.387 413.821 272.443ZM619.069 423.937C651.368 445.824 698.999 463.778 738.093 464.851C753.487 465.274 786.313 448.571 798.619 461.724C804.359 467.862 801.189 478.152 798.786 485.09C792.405 503.539 778.834 516.637 762.438 525.916C708.172 556.632 639.787 539.147 581.198 537.905C588.372 516.245 599.219 496.106 605.121 473.972C609.436 457.794 609.504 437.73 619.069 423.937Z" fill="#1f1f1f" fill-rule="nonzero" opacity="1" stroke="#00ff8b" stroke-linecap="butt" stroke-linejoin="round" stroke-opacity="0" stroke-width="10" vectornator:layerName="path"/>
</g>
</g>
</svg>
