<?xml version="1.0" encoding="UTF-8" standalone="no"?>
<!DOCTYPE svg PUBLIC "-//W3C//DTD SVG 1.1//EN" "http://www.w3.org/Graphics/SVG/1.1/DTD/svg11.dtd">
<!-- Created with Vectornator (http://vectornator.io/) -->
<svg height="100%" stroke-miterlimit="10" style="fill-rule:nonzero;clip-rule:evenodd;stroke-linecap:round;stroke-linejoin:round;" version="1.1" viewBox="0 0 357 318" width="100%" xml:space="preserve" xmlns="http://www.w3.org/2000/svg" xmlns:vectornator="http://vectornator.io" xmlns:xlink="http://www.w3.org/1999/xlink">
<defs/>
<g id="Untitled" vectornator:layerName="Untitled">
<path d="M194.334 214.798C184.398 214.878 177.293 217.773 168 212.757C164.002 210.6 160.97 208.386 160.996 203.605C161.007 201.505 160.733 200.602 161.367 198.629C178.306 205.519 194.439 205.24 210.716 195.381C214.241 193.246 219.343 190.608 221.562 187.06C224.48 182.392 217.812 178.279 220.71 172.87C224.548 165.703 230.286 159.965 233.553 152.343C241.819 133.059 237.445 113.649 224.013 97.9486C219.59 92.7784 214.373 88.6179 208.618 84.9604C198.862 78.7612 188.546 77.4222 177.144 77.4222C169.725 77.4222 162.279 77.5315 155.113 79.7005C125.12 88.7791 100.751 119.64 98.5557 150.291C95.2277 196.736 119.974 244.406 164.555 263.761C177.888 269.55 192.111 273.146 206.519 275.065C209.559 275.47 221.628 277.158 223.482 273.88C225.631 270.079 214.032 261.887 211.928 259.08C202.082 245.947 195.647 231.086 194.334 214.798Z" fill="#f5d865" fill-rule="nonzero" opacity="1" stroke="none" vectornator:layerName="path"/>
<path d="M249.899 133.626C246.232 138.725 245.69 150.132 243.439 156.586C241.122 163.227 237.104 169.708 235.872 176.641C248.953 176.641 265.518 179.906 281.03 178.817C290.714 178.137 300.1 174.877 307.627 170.782C313.33 167.679 324.204 154.367 318.01 146.539C316.637 144.804 313.618 144.279 311.662 144.563C306.573 145.304 300.434 147.74 295.216 147.843C278.677 148.169 265.273 140.302 249.899 133.626Z" fill="#f5d865" fill-rule="nonzero" opacity="1" stroke="none" vectornator:layerName="path 1"/>
<path d="M168 125.76C168 116.371 175.611 108.76 185 108.76C194.389 108.76 202 116.371 202 125.76C202 135.149 194.389 142.76 185 142.76C175.611 142.76 168 135.149 168 125.76Z" fill="#1a1f1f" fill-rule="nonzero" opacity="1" stroke="none" vectornator:layerName="Oval 1"/>
<path d="M261.906 146.562C261.227 146.513 260.547 146.534 259.938 146.719C248.335 150.232 265.317 166.346 270.281 154.312C271.038 152.476 270.852 150.312 270.875 148.375C268.545 147.894 266.225 147.215 263.875 146.844C263.264 146.748 262.586 146.612 261.906 146.562Z" fill="#1a1f1f" fill-rule="nonzero" opacity="1" stroke="none"/>
<path d="M144.875 45.375C141.106 45.4201 135.425 45.4339 135.125 50.4062C134.621 58.7748 144.615 64.4517 148.875 70.375C135.944 71.5111 124.633 81.5888 115.875 90.375C85.509 120.839 79.6558 170.599 96.75 209.375C102.565 222.565 109.486 236.477 119.062 247.375C139.079 270.153 172.648 284.986 202.875 286.312C220.417 287.081 230.958 287.148 247.875 283.656C237.02 270.195 225.583 256.545 216.5 241.375C212.308 234.375 207.021 219.125 212.469 211.531C215.816 206.867 222.345 203.984 226.875 200.594C230.741 197.701 234.064 193.097 238.875 191.781C249.052 188.997 262.515 191.572 272.875 192.281C284.788 193.097 297.895 191.3 308.875 186.469C324.156 179.748 340.909 160.032 333.5 142.375C332.624 140.288 331.464 138.208 330.094 136.406C321.614 125.242 307.385 134.21 295.875 133.281C286.235 132.502 275.827 128.041 266.875 124.562C261.458 122.457 255.267 120.196 250.969 116.156C247.231 112.643 245.343 107.655 242.656 103.375C238.568 96.8656 233.5 90.6748 227.875 85.4375C221.832 79.8102 214.417 74.6184 206.875 71.2188C201.688 68.8808 195.855 67.6696 190.875 64.9375C184.679 61.5381 180.12 55.7691 173.875 52.25C165.162 47.3408 154.795 45.2564 144.875 45.375ZM175 79.875C177.598 79.8284 180.225 79.9225 182.875 80.1875C189.554 80.8553 195.727 81.5102 201.875 84.5C226.706 96.5753 240.875 123.665 232.125 150.375C229.102 159.601 221.754 165.827 218.062 174.375C215.981 179.193 222.264 182.737 219.969 186.906C217.921 190.626 212.406 193.769 208.875 195.906C194.426 204.655 175.518 205.889 160.875 197.375C156.209 216.983 180.462 217.865 193.875 215.375C196.365 223.799 195.989 232.031 199.75 240.375C205.365 252.832 215.286 262.276 222.875 273.375C203.364 273.375 184.939 271.201 166.875 263.062C125.827 244.571 97.7881 199.749 100.969 154.375C103.704 115.339 136.035 80.5743 175 79.875ZM250.875 134.375C262.815 142.249 280.423 148.708 294.875 149.094C300.566 149.246 312.701 143.237 317.25 147.969C319.372 150.177 318.2 153.879 317.312 156.375C314.953 163.012 309.936 167.724 303.875 171.062C283.814 182.112 258.534 175.822 236.875 175.375C239.527 167.583 243.537 160.338 245.719 152.375C247.314 146.555 247.339 139.337 250.875 134.375Z" fill="#1f1f1f" fill-rule="nonzero" opacity="1" stroke="none"/>
</g>
</svg>
